<?xml version="1.0" encoding="utf-8"?>
<!-- Generator: Adobe Illustrator 16.0.0, SVG Export Plug-In . SVG Version: 6.00 Build 0)  -->
<!DOCTYPE svg PUBLIC "-//W3C//DTD SVG 1.1//EN" "http://www.w3.org/Graphics/SVG/1.1/DTD/svg11.dtd">
<svg version="1.1" id="Layer_1" xmlns="http://www.w3.org/2000/svg" xmlns:xlink="http://www.w3.org/1999/xlink" x="0px" y="0px"
	 width="612px" height="792px" viewBox="0 0 612 792" enable-background="new 0 0 612 792" xml:space="preserve">
<g>
	<path opacity="0.33" fill="#E5CCCC" d="M18.42,199.621l163.121-0.509l-41.61-8.492c0,0,1.698-46.706-18.683-37.365
		c-20.381,9.341-21.229,29.722-21.229,29.722s-7.643-18.682-18.683-11.889c-11.04,6.793-16.135,18.683-16.135,18.683
		s-3.962-13.442-11.04-14.205c-6.05-0.652-17.561,12.134-23.594,19.326L18.42,199.621z"/>
	<path opacity="0.33" fill="#E5CCCC" d="M467.04,275.388l134.563-0.378l-34.326-6.31c0,0,1.4-34.701-15.412-27.761
		c-16.812,6.94-17.512,22.083-17.512,22.083s-6.306-13.881-15.412-8.833c-9.106,5.048-13.31,13.88-13.31,13.88
		s-3.27-9.987-9.106-10.553c-4.993-0.484-14.487,9.015-19.465,14.358L467.04,275.388z"/>
	<path opacity="0.33" fill="#E5CCCC" d="M248.131,82.558l134.563-0.42l-34.326-7.005c0,0,1.402-38.528-15.411-30.823
		c-16.813,7.706-17.513,24.519-17.513,24.519s-6.305-15.412-15.412-9.808c-9.106,5.605-13.31,15.412-13.31,15.412
		s-3.269-11.089-9.106-11.718c-4.992-0.537-14.487,10.01-19.464,15.943L248.131,82.558z"/>
</g>
<g>
	<path fill="#B7AED6" d="M484.843,59.262l-10.233,3.553l-4.438-12.784c-8.185-23.579-34.037-36.099-57.597-27.921
		c-23.569,8.183-36.075,34.02-27.891,57.598l4.438,12.783l-10.267,3.564c-7.983,2.771-12.272,11.606-9.498,19.599l28.879,83.187
		c2.816,8.113,11.663,12.408,19.646,9.637l105.986-36.794c8.113-2.816,12.404-11.672,9.588-19.784l-28.879-83.188
		C501.804,60.719,492.954,56.445,484.843,59.262z M403.997,73.002c-4.485-12.921,2.364-27.083,15.286-31.57
		c12.912-4.482,27.071,2.386,31.558,15.309l4.437,12.783l-46.843,16.262L403.997,73.002z M465.423,148.826l7.374,21.244
		c0.312,0.898-0.221,1.82-1.13,2.135l-10.171,3.531c-0.777,0.27-1.776-0.119-2.089-1.018l-7.374-21.244
		c-7.891-0.284-15.238-5.254-18.012-13.246c-3.567-10.276,1.891-21.551,12.2-25.13c10.302-3.577,21.57,1.892,25.138,12.167
		C474.135,135.258,471.447,143.711,465.423,148.826z"/>
	<g>
		<path fill="#0E9BD3" d="M414.739,470.227c-2.518-4.908,3.378-10.162,8.808-11.134c5.43-0.969,11.579-0.226,15.904-3.65
			c5.773-4.572,5.478-14.545,11.874-18.194c5.134-2.931,11.932-0.134,17.371-2.45c6.757-2.877,8.657-12.291,15.288-15.452
			c5.283-2.52,12.195,0.329,14.893,5.524c2.698,5.196,1.456,11.912-2.283,16.416c-2.925,3.523-7.256,5.993-9.073,10.195
			c-2.847,6.58,1.646,14.556-0.974,21.229c-4.835,12.327-27.683,8.616-31.652,21.249c-0.883,2.813-0.512,5.844-0.741,8.783
			c-0.685,8.742-6.848,16.379-14.46,20.733c-7.612,4.355-16.517,5.865-25.265,6.477c-3.573,0.25-7.342,0.325-10.528-1.314
			c-2.997-1.543-5.083-4.413-6.712-7.365C386.683,502.212,382.352,477.374,414.739,470.227"/>
	</g>
	<g>
		<path fill="#FAA53A" d="M246.236,460.096c5.649-3.732,2.507-12.904-2.716-17.212c-5.224-4.309-12.25-7.218-14.813-13.484
			c-3.421-8.367,2.9-18.855-1.744-26.611c-3.727-6.226-12.682-7.33-17.105-13.081c-5.496-7.147-1.859-18.363-7.046-25.736
			c-4.135-5.878-13.242-6.992-19.257-3.061c-6.014,3.934-8.732,11.865-7.444,18.936c1.007,5.53,4.152,10.778,3.566,16.368
			c-0.919,8.752-10.526,14.579-11.745,23.293c-2.251,16.099,24.423,25.889,21.06,41.792c-0.749,3.54-2.972,6.559-4.495,9.841
			c-4.533,9.764-2.54,21.644,2.979,30.886c5.52,9.241,14.135,16.221,23.124,22.143c3.672,2.421,7.658,4.769,12.053,4.935
			c4.137,0.154,8.096-1.659,11.616-3.837C256.983,511.206,276.574,487.246,246.236,460.096"/>
	</g>
	<g>
		<g>
			<path fill="#F4806E" d="M394.449,480.282c7.9-3.408,15.015-9.71,20.913-15.8c15.909-16.421,25.771-37.866,30.959-59.941
				c4.694-19.977,5.741-40.633,4.76-61.079c-0.083-1.73-2.785-1.74-2.702,0c2.205,45.933-6.916,102.3-48.023,130.257
				c-2.297,1.562-4.709,3.125-7.271,4.229C391.492,478.636,392.867,480.963,394.449,480.282L394.449,480.282z"/>
		</g>
		<path fill="#F4806E" d="M446.693,396.811c0,0,2.604-14.879,22.317-17.234C469.011,379.576,461.819,397.186,446.693,396.811z"/>
		<path fill="#F4806E" d="M440.23,418.805c0,0,6.005-13.86,25.726-11.549C465.956,407.256,454.852,422.699,440.23,418.805z"/>
		<path fill="#F4806E" d="M431.855,438.189c0,0,8.959-12.164,27.659-5.491C459.515,432.698,445.232,445.262,431.855,438.189z"/>
		<path fill="#F4806E" d="M449.721,373.706c0,0,2.56-14.628,21.939-16.943C471.66,356.763,464.591,374.073,449.721,373.706z"/>
		<path fill="#F4806E" d="M449.983,348.286c0,0-11.033-9.938-2.703-27.589C447.28,320.697,458.192,335.882,449.983,348.286z"/>
		<path fill="#F4806E" d="M450.051,363.363c0,0-14.604-2.696-16.739-22.096C433.312,341.268,450.557,348.498,450.051,363.363z"/>
		<path fill="#F4806E" d="M448.595,385.648c0,0-14.603-2.695-16.739-22.095C431.855,363.554,449.1,370.782,448.595,385.648z"/>
		<path fill="#F4806E" d="M444.803,406.521c0,0-14.378-3.712-15.149-23.215C429.653,383.307,446.35,391.727,444.803,406.521z"/>
		<path fill="#F4806E" d="M438.177,427.373c0,0-14.379-3.712-15.148-23.215C423.028,404.158,439.725,412.58,438.177,427.373z"/>
	</g>
	<g>
		<path fill="#216FA9" d="M396.958,532.633H248.995c-17.089,0-30.942-13.853-30.942-30.942V152.1
			c0-17.089,13.854-30.943,30.942-30.943h147.963c17.088,0,30.942,13.854,30.942,30.943v349.59
			C427.9,518.78,414.046,532.633,396.958,532.633z"/>
		<path fill="#F1ECEB" d="M396.542,518.09H249.41c-11.968,0-21.67-9.702-21.67-21.67V154.927c0-11.968,9.702-21.671,21.67-21.671
			h147.132c11.969,0,21.671,9.703,21.671,21.671V496.42C418.213,508.388,408.511,518.09,396.542,518.09z"/>
		<path fill="#3985C6" d="M379.972,133.256h-12.387c-3.802,0-6.884,3.081-6.884,6.882v4.918c0,3.801-3.08,6.881-6.881,6.881h-55.239
			c-3.801,0-6.881-3.081-6.881-6.881v-4.918c0-3.801-3.082-6.882-6.882-6.882h-35.173v-3.531h130.328V133.256z"/>
		<g>
			<g>
				<g>
					<path fill="#35346D" d="M328.269,192.565c0.809-0.432,1.365-1.274,1.365-2.253c0-1.417-1.147-2.565-2.563-2.565
						c-1.418,0-2.566,1.147-2.566,2.565c0,0.979,0.559,1.822,1.366,2.253c-1.619,0.512-2.801,2.033-2.801,3.815v2.018h8.002v-2.018
						C331.071,194.598,329.888,193.078,328.269,192.565z"/>
					<g>
						<text transform="matrix(1 0 0 1 292.9326 212.5723)" fill="#35346D" font-family="'Montserrat-Regular'" font-size="8.8182">Create Account</text>
					</g>
				</g>
				<g>
					<path fill="#BD3E62" d="M360.183,461.649h-76.395c-0.791,0-1.433-0.641-1.433-1.432v-14.933c0-0.791,0.642-1.432,1.433-1.432
						h76.395c0.79,0,1.432,0.641,1.432,1.432v14.933C361.614,461.009,360.973,461.649,360.183,461.649z"/>
					<g>
						<text transform="matrix(1 0 0 1 308.3096 454.6836)" fill="#F4F5EA" font-family="'Montserrat-Regular'" font-size="6.5686">Register</text>
					</g>
				</g>
				<g>
					<g opacity="0.57">
						<text transform="matrix(1 0 0 1 254.5801 236.4873)" fill="#35346D" font-family="'Montserrat-Regular'" font-size="6.0012">Email Address</text>
					</g>
					<g>
						<text transform="matrix(1 0 0 1 261.3252 256.0752)" fill="#35346D" font-family="'Montserrat-Regular'" font-size="6.0012">youremail@gmail.c</text>
					</g>
					<path fill="none" stroke="#35346D" stroke-width="0.5" stroke-miterlimit="10" d="M395.521,264.854H258.617
						c-2.229,0-4.037-1.807-4.037-4.037v-13.771c0-2.229,1.808-4.037,4.037-4.037h136.904c2.23,0,4.036,1.808,4.036,4.037v13.771
						C399.557,263.048,397.751,264.854,395.521,264.854z"/>
				</g>
				<g>
					<g>
						<g opacity="0.52">
							<text transform="matrix(1 0 0 1 254.5801 285.1113)" fill="#35346D" font-family="'Montserrat-Regular'" font-size="6.0012">Country</text>
						</g>
						<g>
							<g>
								
									<text transform="matrix(1 0 0 1 261.3252 304.5098)" fill="#35346D" font-family="'Montserrat-Regular'" font-size="6.0012">Your text</text>
							</g>
							<path fill="none" stroke="#35346D" stroke-width="0.5" stroke-miterlimit="10" d="M395.521,313.667H258.617
								c-2.229,0-4.036-1.808-4.036-4.036v-13.771c0-2.23,1.807-4.037,4.036-4.037h136.904c2.23,0,4.036,1.807,4.036,4.037v13.771
								C399.557,311.859,397.751,313.667,395.521,313.667z"/>
						</g>
					</g>
				</g>
				<g>
					<g>
						<g opacity="0.52">
							<text transform="matrix(1 0 0 1 254.5801 336.4512)" fill="#35346D" font-family="'Montserrat-Regular'" font-size="6.0012">City</text>
						</g>
						<g>
							<g>
								
									<text transform="matrix(1 0 0 1 261.3252 355.8506)" fill="#35346D" font-family="'Montserrat-Regular'" font-size="6.0012">Your City</text>
							</g>
							<path fill="none" stroke="#35346D" stroke-width="0.5" stroke-miterlimit="10" d="M395.521,365.009H258.617
								c-2.229,0-4.036-1.807-4.036-4.037V347.2c0-2.229,1.807-4.035,4.036-4.035h136.904c2.23,0,4.036,1.806,4.036,4.035v13.771
								C399.557,363.202,397.751,365.009,395.521,365.009z"/>
						</g>
					</g>
				</g>
				<g>
					<g>
						<g opacity="0.52">
							<text transform="matrix(1 0 0 1 254.5801 388.042)" fill="#35346D" font-family="'Montserrat-Regular'" font-size="6.0012">Password</text>
						</g>
						<g>
							<g>
								
									<text transform="matrix(1 0 0 1 261.3252 407.4404)" fill="#35346D" font-family="'Montserrat-Regular'" font-size="6.0012">Entry password</text>
							</g>
							<path fill="none" stroke="#35346D" stroke-width="0.5" stroke-miterlimit="10" d="M395.521,416.598H258.617
								c-2.229,0-4.036-1.807-4.036-4.036V398.79c0-2.229,1.807-4.037,4.036-4.037h136.904c2.23,0,4.036,1.808,4.036,4.037v13.771
								C399.557,414.791,397.751,416.598,395.521,416.598z"/>
						</g>
					</g>
				</g>
			</g>
			
				<line fill="none" stroke="#00B9DA" stroke-width="0.5" stroke-miterlimit="10" x1="320.716" y1="248.901" x2="320.716" y2="256.61"/>
		</g>
	</g>
</g>
<g>
	<ellipse opacity="0.25" fill="#6E57A5" cx="302.337" cy="594.937" rx="93.259" ry="3.083"/>
	<g>
		<path fill="#FAB99C" d="M312.187,397.614c0,0,9.268,14.31,11.365,8.108c2.1-6.201,3.383-9.998,3.383-9.998
			s-2.632-4.313-4.025-2.986c-1.457,1.39-3.348-1.134-3.348-1.134L312.187,397.614z"/>
		<g>
			<path fill="#FAB99C" d="M357.992,323.605l3.83-22.236c2.513-0.811,5.098-2.753,4.213-5.758c-0.442-1.5-1.618-2.295-3.002-2.818
				c-0.521-0.197-3.197-0.966-3.385,0.066c0.003-0.015,1.457-8.014,1.457-8.014l-26.078-12.585c0,0-2.376,15.961-2.404,16.146
				c0.037-0.248-2.535-0.825-2.883-0.788c-1.31,0.14-2.586,1.36-3.101,2.508c-1.357,3.025,1.27,6.85,4.546,6.901
				c0,0,0.447,7.161,2.107,9.701c1.66,2.541,9.327,4.295,9.327,4.295l-0.841,9.683L357.992,323.605z"/>
		</g>
		<g>
			<path fill="#74CCD3" d="M366.8,325.427c-11.784-3.307-28.334-6.216-28.334-6.216l-10.979,78.194l46.255-1.428L366.8,325.427z"/>
		</g>
		<g>
			<path fill="#74CCD3" d="M366.8,325.427c15.387,4.032,30.577,7.076,46.398,8.714c-3.523-16.026-5.452-28.279-10.056-41.892
				c4.396-1.113,12.976-3.307,17.372-4.419c0,0,14.567,50.754,10.146,57.52c-7.524,11.516-45.003,3.934-45.003,3.934l-17.728-3.16
				L366.8,325.427z"/>
		</g>
		<g>
			<path fill="#74CCD3" d="M287.58,342.643c0,0,49.652-24.289,51.934-23.393c2.282,0.896,4.222,12.152,4.222,12.152
				s-18,11.451-45.833,24.39l25.316,34.46l-12.612,9.045c0,0-34.762-39.069-33.44-47.145
				C278.186,345.922,287.58,342.643,287.58,342.643z"/>
		</g>
		<path fill="#FAB99C" d="M419.766,288.02c0,0-2.055-14.364-2.301-14.774c-0.245-0.41-0.245-2.946-3.935-2.333
			c0,0-0.246-4.552-2.376-4.634c-2.132-0.082-4.509,0.492-4.509,0.492s-2.398-11.669-3.956-13.692
			c-1.7-2.209-4.077,3.61-0.389,17.834c0,0,2.045,9.674,1.435,10.029c-1.65,0.962-3.918,0.788-7.059-4.581
			c-3.334-5.702-7.49-3.771-5.441,0.656c2.049,4.426,4.954,10.152,6.839,11.709c1.885,1.558,5.867,1.323,5.867,1.323l0.584,1.85
			L419.766,288.02z"/>
		<g>
			<path fill="#604557" d="M373.741,395.978c-5.571,84.617-24.486,189.047-24.486,189.047l18.525,7.84h-39.451l25.875-184.667
				h-8.863l-65.453,184.786H240.48l22.419-8.175l65.43-193.413L373.741,395.978z"/>
		</g>
		<path fill="#D16A3F" d="M364.252,293.384c2.205-4.41,4.784-15.11-1.91-18.085c-3.474-1.544-7.076-3.767-9.736-5.548
			c-4.079-2.731-9.15-3.816-13.883-2.503c-0.759,0.21-1.5,0.48-2.196,0.822c-4.673,2.294-7.829,14.712-7.829,14.712l4.593,1.15
			c0,0,5.122,22.778,13.547,27.459l8.416,1.782l4.979,1.118L364.252,293.384z"/>
		<g>
			<g>
				<path fill="#D16A3F" d="M358.012,273.719c0.035-1.364-0.017-2.722-0.157-4.08c-0.039-0.378-0.635-0.382-0.596,0
					c0.141,1.357,0.193,2.715,0.157,4.08C357.406,274.104,358.002,274.103,358.012,273.719L358.012,273.719z"/>
			</g>
		</g>
		<g>
			<g>
				<path fill="#D16A3F" d="M358.081,273.772c0.561-0.355,0.757-1.044,1.062-1.606c0.391-0.717,0.852-1.392,1.347-2.039
					c0.233-0.305-0.284-0.601-0.514-0.301c-0.397,0.52-0.764,1.056-1.103,1.615c-0.311,0.512-0.576,1.489-1.093,1.817
					C357.457,273.463,357.756,273.979,358.081,273.772L358.081,273.772z"/>
			</g>
		</g>
	</g>
</g>
<g>
	<ellipse opacity="0.25" fill="#6E57A5" cx="103.657" cy="572.489" rx="93.259" ry="3.085"/>
	<g>
		<path fill="#604557" d="M135.743,248.72c-1.75-0.401-3.385-0.462-5.623-0.671c-3.337-0.311-6.382,1.852-8.909,4.055
			c-2.526,2.203-4.347,5.093-5.982,8.02c-1.671,2.989-3.23,6.453-2.244,9.733c0.251,0.835,0.666,1.647,0.655,2.519
			c-0.037,2.711-3.774,3.736-4.943,6.183c-1.445,3.024,1.504,7.098-0.495,9.788c-0.998,1.342-2.919,1.765-3.865,3.146
			c-0.742,1.084-0.711,2.501-0.653,3.814c0.012,0.27,0.037,0.57,0.236,0.753c0.165,0.152,0.407,0.182,0.63,0.203
			c10.682,1.026,21.254-1.283,31.936-0.256c1.29,0.124,2.59,0.248,3.877,0.096c1.847-0.218,3.576-0.991,5.268-1.763
			c9.233-4.207,18.476-5.298,27.498-9.941c0.378-0.194,0.779-0.413,0.969-0.793c0.145-0.292,0.141-0.634,0.108-0.958
			c-0.242-2.377-1.999-4.532-4.279-5.248c-2.351-0.737-5.169-0.093-7.132-1.583c-1.415-1.075-1.929-2.96-2.116-4.728
			c-0.378-3.591,0.031-7.746-2.569-10.251c-2.036-1.962-5.303-2.176-7.348-4.129c-1.165-1.112-1.792-2.662-2.732-3.97
			C145.279,248.908,140.593,246.686,135.743,248.72"/>
		<g>
			<path fill="#4A658F" d="M117.891,372.154L58.349,560.583l-23.435,9.036h34.778l67.229-177.522
				c0.431-1.14,1.523-1.895,2.741-1.895l0,0c1.742,0,3.101,1.512,2.916,3.244l-17.714,176.173h35.203l-23.505-7.771
				c0,0,21.899-102.441,26.773-134.494s-2.19-54.701-2.19-54.701S138.322,365.416,117.891,372.154z"/>
		</g>
		<g>
			<path fill="#F4806E" d="M118.589,304.336c5.458-5.701,27.154-6.357,34.997-3.136c7.843,3.221,22.274,44.883,22.274,44.883
				l-14.353,5.636l-8.905-34.832l-27.912-3.846L118.589,304.336z"/>
		</g>
		<g>
			<path fill="#F4806E" d="M155.26,322.003c0,0,2.445-5.767,2.966-10.219c0.522-4.451-5.531-8.805-5.531-8.805l-32.839,8.51
				l2.042,19.562l-4.818,39.524l41.726,1.549l-4.193-49.956"/>
		</g>
		<g>
			<path fill="#3197BD" d="M122.358,323.129c-0.14,0-0.281-0.043-0.401-0.133c-0.294-0.221-0.354-0.64-0.134-0.935l2.334-3.107
				c0.222-0.294,0.64-0.357,0.934-0.134c0.296,0.221,0.354,0.64,0.133,0.934l-2.331,3.108
				C122.76,323.038,122.56,323.129,122.358,323.129z"/>
		</g>
		<g>
			<path fill="#6FCBED" d="M101.513,377.309c2.51-1.462,5.019-2.923,7.529-4.383"/>
		</g>
		<g>
			<path fill="#FAB99C" d="M134.019,299.631c-0.457-4.362,1.773-8.786-5.263-11.604c-9.701-3.886-11.781-37.335,5.741-37.41
				c17.522-0.075,16.663,22.004,16.593,28.56c-0.07,6.555-5.842,8.225-7.284,10.597s-0.197,9.858-0.197,9.858H134.019z"/>
		</g>
		<g>
			<ellipse fill="#FAB99C" cx="120.713" cy="274.299" rx="3.364" ry="3.89"/>
		</g>
		<g>
			<ellipse fill="#FAB99C" cx="152.149" cy="271.293" rx="3.365" ry="3.89"/>
		</g>
		<path fill="#B7AED6" d="M224.698,342.116l-5.195-13.166L72.6,386.621c-5.67-7.664-14.771-12.634-25.036-12.634
			c-17.191,0-31.127,13.936-31.127,31.125c0,17.191,13.936,31.127,31.127,31.127c17.19,0,31.126-13.936,31.126-31.127
			c0-1.277-0.086-2.534-0.236-3.771l111.874-45.306l6.144,13.514l13.646-6.251l-4.803-10.754l4.421-2.34l5.202,10.345l9.761-5.213
			l-5.407-11.029L224.698,342.116z M47.563,425.392c-11.2,0-20.279-9.079-20.279-20.279c0-11.198,9.079-20.276,20.279-20.276
			c11.199,0,20.278,9.078,20.278,20.276C67.841,416.313,58.763,425.392,47.563,425.392z"/>
		<g>
			<path fill="#F4806E" d="M118.589,304.336c0,0-37.04,32.979-37.243,39.1c-0.203,6.121,21.823,38.317,21.823,38.317l11.01-6.961
				l-15.42-28.865l25.088-23.924c0,0,0.822,5.559,2.829,7.07l1.117-22.008L118.589,304.336z"/>
		</g>
		<path fill="#604557" d="M147.574,258.309c-4.815,0.248-26.155,2.419-26.155,2.419s3.121-12.81,13.078-13.313
			C147.574,246.753,147.574,258.309,147.574,258.309z"/>
		<path fill="#604557" d="M121.446,271.837c0,0,17.292-1.62,20.321-9.782c0,0,5.742,7.34,9.105,6.972c0,0,0.551-9.658-1.54-10.964
			c-2.09-1.307-28.62,1.387-28.62,1.387S120.028,265.626,121.446,271.837z"/>
		<path fill="#FAB99C" d="M103.632,381.362c0,0,4.724,9.96,4.995,10.202c0.271,0.241,0.842,2.081,3.38,0.807
			c0,0,1.204,3.248,2.768,2.828c1.565-0.422,3.161-1.372,3.161-1.372s1.896,2.526,3.303,1.192c1.644-1.563,0.088-3.295-1.084-5.176
			c0,0-3.66-6.561-3.298-6.954c0.981-1.07,2.666-1.455,6.153,1.734c3.703,3.387,6.284,1.049,3.801-1.702
			c-2.484-2.749-5.88-6.251-7.599-6.957c-1.718-0.704-4.555,0.361-4.555,0.361l-0.841-1.21L103.632,381.362z"/>
		<path fill="#F4806E" d="M179.357,360.478c0,0-2.653,7.54-7.286,8.806c-4.633,1.267-30.612,6.542-30.612,6.542V365.55
			L179.357,360.478z"/>
		<path fill="#FAB99C" d="M141.46,366.781h-1.979c0,0-0.444-1.39-0.726-1.846c-0.812-1.317-11.687-2.701-11.487-1.277
			c0.199,1.423,1.988,1.774,5.822,2.484c0,0-14.343,3.479-12.994,4.615c1.35,1.137,10.296-1.475,10.296-1.475
			s-9.705,3.156-9.018,5.309c0.394,1.233,10.229-1.666,10.229-1.666s-10.017,3.584-8.241,4.791s12.852-1.512,13.917-1.892
			c1.065-0.38,1.476-2.439,1.476-2.439l2.705-0.46V366.781z"/>
		<g>
			<path fill="#604557" d="M133.294,243.499c0.38,1.586,0.54,3.562,1.45,4.948c0.377,0.575,1.306,0.039,0.926-0.541
				c-0.839-1.28-0.99-3.224-1.342-4.691C134.167,242.543,133.133,242.828,133.294,243.499L133.294,243.499z"/>
		</g>
		<g>
			<path fill="#604557" d="M135.625,248.546c0.546-0.975,1.132-1.924,1.757-2.849c0.388-0.574-0.541-1.111-0.926-0.542
				c-0.625,0.926-1.211,1.875-1.757,2.849C134.36,248.607,135.287,249.148,135.625,248.546L135.625,248.546z"/>
		</g>
		<g>
			<path fill="#F79B7A" d="M137.699,271.093c-0.04,1.233-0.01,2.458,0.134,3.685c0.074,0.628,0.014,1.75,0.449,2.227
				c0.249,0.273,0.772,0.255,1.087,0.305c1.175,0.182,2.361,0.316,3.54,0.474c-0.063-0.153-0.126-0.305-0.19-0.457
				c-1.002,0.952-2.083,1.652-3.353,2.188c-0.316,0.135-0.043,0.597,0.271,0.463c1.314-0.556,2.429-1.293,3.461-2.273
				c0.187-0.178,0.023-0.429-0.189-0.457c-1.229-0.165-3.732-0.026-4.371-1.324c-0.598-1.218-0.346-3.532-0.304-4.831
				C138.247,270.748,137.71,270.748,137.699,271.093L137.699,271.093z"/>
		</g>
		<g>
			<path fill="#56443E" d="M143.203,274.78c0.154-1.223-0.624-4.085,0.918-4.677c1.37-0.526,2.234,0.614,2.449,1.769
				c0.135,0.725,0.264,1.451,0.396,2.177c0.062,0.339,0.579,0.195,0.517-0.143c-0.324-1.778-0.4-4.818-3.051-4.456
				c-2.468,0.336-1.566,3.756-1.765,5.33C142.624,275.122,143.16,275.119,143.203,274.78L143.203,274.78z"/>
		</g>
		<g>
			<path fill="#56443E" d="M129.367,275.513c0.154-1.223-0.624-4.086,0.918-4.677c1.369-0.526,2.234,0.613,2.449,1.769
				c0.135,0.724,0.264,1.451,0.396,2.176c0.062,0.339,0.579,0.195,0.517-0.143c-0.324-1.779-0.4-4.818-3.05-4.457
				c-2.468,0.336-1.567,3.757-1.766,5.331C128.788,275.854,129.325,275.851,129.367,275.513L129.367,275.513z"/>
		</g>
		<g>
			<path fill="#F79B7A" d="M133.021,278.622c0.576,4.461,8.13,5.356,10.905,2.648c0.248-0.242-0.131-0.62-0.378-0.379
				c-2.318,2.26-9.474,1.732-9.99-2.27C133.515,278.285,132.978,278.28,133.021,278.622L133.021,278.622z"/>
		</g>
		<g>
			<path fill="#F79B7A" d="M132.915,279.371c0.154-0.473,0.631-0.779,1.128-0.696c0.337,0.057,0.482-0.46,0.143-0.517
				c-0.794-0.133-1.536,0.299-1.787,1.07C132.291,279.557,132.808,279.698,132.915,279.371L132.915,279.371z"/>
		</g>
		<g opacity="0.28">
			<path fill="#F4817C" d="M132.244,276.844c0.238,0.599-0.819,1.576-2.431,1.921c-0.779,0.174-1.595,0.147-2.051,0.001
				c-0.444-0.145-0.756-0.303-0.921-0.585c-0.072-0.143-0.066-0.322,0.045-0.514c0.109-0.191,0.328-0.382,0.595-0.535
				c0.542-0.297,1.112-0.5,1.838-0.66C130.723,276.174,132.006,276.238,132.244,276.844z"/>
		</g>
		<g opacity="0.28">
			<path fill="#F4817C" d="M149.834,275.618c0.238,0.599-0.819,1.576-2.431,1.921c-0.78,0.174-1.595,0.147-2.052,0.002
				c-0.443-0.146-0.757-0.303-0.921-0.586c-0.072-0.144-0.067-0.323,0.045-0.515c0.109-0.19,0.328-0.381,0.595-0.534
				c0.542-0.296,1.112-0.5,1.837-0.66C148.314,274.947,149.596,275.012,149.834,275.618z"/>
		</g>
		<g>
			<path fill="#F79B7A" d="M120.488,272.282c-1.054,0.037-1.615,1.021-1.521,2.004c0.095,0.998,0.796,1.762,1.806,1.832
				c0.344,0.024,0.343-0.511,0-0.536c-1.418-0.1-1.869-2.709-0.285-2.764C120.832,272.806,120.833,272.27,120.488,272.282
				L120.488,272.282z"/>
		</g>
		<g>
			<path fill="#F79B7A" d="M119.056,273.745c0.51,0.639,1.286,0.976,2.099,0.924c0.342-0.022,0.345-0.559,0-0.537
				c-0.689,0.045-1.29-0.227-1.72-0.767C119.22,273.096,118.843,273.478,119.056,273.745L119.056,273.745z"/>
		</g>
		<g>
			<path fill="#F79B7A" d="M151.883,273.204c1.16,0.276,1.802-0.779,1.948-1.784c0.162-1.109-0.521-2.185-1.7-2.291
				c-0.344-0.032-0.341,0.505,0,0.536c0.752,0.069,1.257,0.822,1.194,1.524c-0.061,0.682-0.403,1.712-1.3,1.499
				C151.69,272.607,151.547,273.124,151.883,273.204L151.883,273.204z"/>
		</g>
		<g>
			<path fill="#F79B7A" d="M152.208,271.622c0.505-0.457,0.826-1.043,0.923-1.719c0.048-0.338-0.468-0.484-0.517-0.143
				c-0.085,0.592-0.341,1.083-0.786,1.484C151.571,271.475,151.952,271.853,152.208,271.622L152.208,271.622z"/>
		</g>
	</g>
</g>
</svg>
